<svg t="1767963947244" class="icon" viewBox="0 0 1024 1024" version="1.1" xmlns="http://www.w3.org/2000/svg" p-id="1570" width="200" height="200"><path d="M216.5 1022c-46.7 0-84.1-12.4-108.8-37.1-5.5-5.5-11.6-11.3-18-17.4-18.8-17.8-40-38.1-56.7-61.1C10.8 875.8 0.7 846 2.1 815.2c2.1-45.4 29-87.8 82.3-129.7l34.2-26.9 0.7 1c19.7-13.4 38-23.6 55.2-30.9 28.3-11.9 54.2-15.9 79-12.3 46.4 6.6 77 37.7 106.6 67.7 2.9 3 5.9 6 8.9 9 2.9 0.3 21.1 0.6 66.4-32 33.2-23.9 73.1-59.7 118.6-106.6l0.4-0.4C684.2 424.3 693 377 693.4 368.4L684 359c-30.5-30.1-62-61.2-68.2-107.5-6.4-47.7 15.2-99.6 70.1-168.3 42-52.6 84.4-79.1 129.8-81.1C846.5 0.7 876.4 10.9 907 33c23.1 16.7 43.4 38 61.3 56.8 5.8 6 11.2 11.8 16.5 17 47.8 47.9 49.9 142.9 5.8 260.8-21.6 57.7-52.9 117.5-93.2 177.8-44.1 66-97.6 130.8-159.2 192.5l-0.1 0.1C676.5 799.1 611.9 852.4 546 896.3c-60.3 40.2-120 71.7-177.5 93.4-57 21.6-108.6 32.3-152 32.3z m-88.9-268.5C106.2 771.3 83.1 795.7 82 819c-1.4 29.5 32.7 61.9 62.8 90.5 6.5 6.2 13.2 12.6 19.5 18.8 9 9 28.8 14 54.3 13.6 33.7-0.4 75.7-9.8 121.4-27.1 110.4-41.7 231.6-124.7 341.5-233.6 109.5-109.7 192.6-231 234-341.7 17.1-45.7 26.3-87.7 26.5-121.6 0.2-25.7-4.9-45.6-14-54.7-5.9-5.9-11.9-12.2-17.7-18.3-28.7-30.1-61.3-64.3-91.2-63-25.7 1.1-52.7 28.4-70.8 51.1-38.5 48.2-56.4 84.5-53.3 107.8 2.5 18.3 18.7 35.2 45.1 61.3 3.1 3.1 6.2 6.2 9.4 9.3 14.9 13.8 23.2 32.3 23.8 53.7 1 34.6-14.7 97.8-162.1 245.4-44.1 45.3-83.9 81.5-118.3 107.6-49.4 37.4-88.1 54.9-121.9 55.1h-0.6c-22.5 0-42.5-8-57.6-23.2-3.3-3.3-6.5-6.6-9.7-9.8-25.6-26-42.2-42-60.9-44.7-23.9-3.4-60.2 14.3-108 52.6l-6.6 5.4z" fill="#231815" p-id="1571"></path></svg>